<mxfile host="app.diagrams.net" modified="2020-05-10T15:45:49.810Z" agent="5.0 (Windows NT 10.0; Win64; x64) AppleWebKit/537.36 (KHTML, like Gecko) Chrome/81.0.4044.138 Safari/537.36" etag="wMWbXUGOuZmSAZU9sQQW" version="13.0.9" type="github">
  <diagram id="kzuf2y3lStBjqFQYMtp8" name="Page-1">
    <mxGraphModel dx="782" dy="469" grid="1" gridSize="10" guides="1" tooltips="1" connect="1" arrows="1" fold="1" page="1" pageScale="1" pageWidth="827" pageHeight="1169" math="0" shadow="0">
      <root>
        <mxCell id="0" />
        <mxCell id="1" parent="0" />
        <mxCell id="qlLwaHahVaCyEtRrNTNx-1" value="" style="ellipse;html=1;shape=startState;fillColor=#000000;strokeColor=#ff0000;" vertex="1" parent="1">
          <mxGeometry x="360" y="40" width="30" height="30" as="geometry" />
        </mxCell>
        <mxCell id="qlLwaHahVaCyEtRrNTNx-2" value="" style="edgeStyle=orthogonalEdgeStyle;html=1;verticalAlign=bottom;endArrow=open;endSize=8;strokeColor=#ff0000;" edge="1" source="qlLwaHahVaCyEtRrNTNx-1" parent="1">
          <mxGeometry relative="1" as="geometry">
            <mxPoint x="375" y="130" as="targetPoint" />
          </mxGeometry>
        </mxCell>
        <mxCell id="qlLwaHahVaCyEtRrNTNx-3" value="Go to Dashboard" style="rounded=1;whiteSpace=wrap;html=1;arcSize=40;fontColor=#000000;fillColor=#ffffc0;strokeColor=#ff0000;" vertex="1" parent="1">
          <mxGeometry x="315" y="130" width="120" height="40" as="geometry" />
        </mxCell>
        <mxCell id="qlLwaHahVaCyEtRrNTNx-4" value="" style="edgeStyle=orthogonalEdgeStyle;html=1;verticalAlign=bottom;endArrow=open;endSize=8;strokeColor=#ff0000;" edge="1" source="qlLwaHahVaCyEtRrNTNx-3" parent="1">
          <mxGeometry relative="1" as="geometry">
            <mxPoint x="375" y="230" as="targetPoint" />
          </mxGeometry>
        </mxCell>
        <mxCell id="qlLwaHahVaCyEtRrNTNx-5" value="Check for Updates" style="rounded=1;whiteSpace=wrap;html=1;arcSize=40;fontColor=#000000;fillColor=#ffffc0;strokeColor=#ff0000;" vertex="1" parent="1">
          <mxGeometry x="310" y="230" width="120" height="40" as="geometry" />
        </mxCell>
        <mxCell id="qlLwaHahVaCyEtRrNTNx-6" value="" style="edgeStyle=orthogonalEdgeStyle;html=1;verticalAlign=bottom;endArrow=open;endSize=8;strokeColor=#ff0000;" edge="1" source="qlLwaHahVaCyEtRrNTNx-5" parent="1">
          <mxGeometry relative="1" as="geometry">
            <mxPoint x="370" y="330" as="targetPoint" />
          </mxGeometry>
        </mxCell>
        <mxCell id="qlLwaHahVaCyEtRrNTNx-7" value="Go through Logout" style="rounded=1;whiteSpace=wrap;html=1;arcSize=40;fontColor=#000000;fillColor=#ffffc0;strokeColor=#ff0000;" vertex="1" parent="1">
          <mxGeometry x="310" y="330" width="120" height="40" as="geometry" />
        </mxCell>
        <mxCell id="qlLwaHahVaCyEtRrNTNx-8" value="" style="edgeStyle=orthogonalEdgeStyle;html=1;verticalAlign=bottom;endArrow=open;endSize=8;strokeColor=#ff0000;" edge="1" source="qlLwaHahVaCyEtRrNTNx-7" parent="1">
          <mxGeometry relative="1" as="geometry">
            <mxPoint x="370" y="430" as="targetPoint" />
          </mxGeometry>
        </mxCell>
        <mxCell id="qlLwaHahVaCyEtRrNTNx-9" value="Back to Login Page" style="rounded=1;whiteSpace=wrap;html=1;arcSize=40;fontColor=#000000;fillColor=#ffffc0;strokeColor=#ff0000;" vertex="1" parent="1">
          <mxGeometry x="310" y="430" width="120" height="40" as="geometry" />
        </mxCell>
        <mxCell id="qlLwaHahVaCyEtRrNTNx-10" value="" style="edgeStyle=orthogonalEdgeStyle;html=1;verticalAlign=bottom;endArrow=open;endSize=8;strokeColor=#ff0000;" edge="1" source="qlLwaHahVaCyEtRrNTNx-9" parent="1">
          <mxGeometry relative="1" as="geometry">
            <mxPoint x="370" y="530" as="targetPoint" />
          </mxGeometry>
        </mxCell>
        <mxCell id="qlLwaHahVaCyEtRrNTNx-11" value="" style="ellipse;html=1;shape=endState;fillColor=#000000;strokeColor=#ff0000;" vertex="1" parent="1">
          <mxGeometry x="355" y="530" width="30" height="30" as="geometry" />
        </mxCell>
      </root>
    </mxGraphModel>
  </diagram>
</mxfile>
